<svg version="1.0" xmlns="http://www.w3.org/2000/svg" width="204" height="204" viewBox="0 0 153 153"><path d="M32.2 75l-30 52h74c40.6 0 73.7-.3 73.5-.8-.2-.4-10.7-18.6-23.3-40.5-20.2-35.1-23-39.6-24.1-38-.7.9-3.9 6.2-7 11.6-4.5 7.9-5.8 9.6-6.8 8.5-.6-.7-6.7-11-13.5-22.8-6.7-11.8-12.4-21.6-12.5-21.8-.1-.1-13.8 23.1-30.3 51.8zm42.4-22c6.8 11.7 11.3 20.3 11.1 21.6-.2 1.1-6.4 12.5-13.8 25.2L58.5 123H9.8l3.4-5.9c23.6-41.6 48.5-84 49.2-83.8.5.2 6 9 12.2 19.7zm48.7 36c9.7 16.8 17.9 31.4 18.3 32.3.6 1.6-.2 1.7-10.6 1.5l-11.2-.3-13.9-24.2-14-24.2 5.6-9.6c5.1-8.6 5.8-9.5 6.9-7.8.7 1 9.2 15.5 18.9 32.3zm-21.4 11.5l12.1 21-24.1.3c-13.3.1-24.4 0-24.6-.2-.3-.2 5-9.9 11.7-21.6 6.7-11.6 12.4-21 12.5-20.8.2.2 5.8 9.7 12.4 21.3z" fill="#0d4ba5"/></svg>